<?xml version="1.0" standalone="no"?>
<!DOCTYPE svg PUBLIC "-//W3C//DTD SVG 20010904//EN"
 "http://www.w3.org/TR/2001/REC-SVG-20010904/DTD/svg10.dtd">
<svg version="1.0" xmlns="http://www.w3.org/2000/svg"
 width="1024.000000pt" height="1024.000000pt" viewBox="0 0 1024.000000 1024.000000"
 preserveAspectRatio="xMidYMid meet">

<g transform="translate(0.000000,1024.000000) scale(0.100000,-0.100000)"
fill="#000000" stroke="none">
<path d="M6080 8019 c0 -15 5 -20 22 -17 34 5 37 38 4 38 -20 0 -26 -5 -26
-21z"/>
<path d="M6490 7810 c-13 -25 -5 -40 20 -40 24 0 33 15 25 40 -8 26 -31 26
-45 0z"/>
<path d="M6596 7763 c-3 -4 -6 -24 -6 -45 0 -32 3 -38 20 -38 11 0 23 -7 26
-15 12 -29 34 -16 34 19 0 25 -5 35 -20 39 -11 3 -20 12 -20 20 0 16 -24 30
-34 20z"/>
<path d="M6735 7700 c4 -6 11 -8 16 -5 14 9 11 15 -7 15 -8 0 -12 -5 -9 -10z"/>
<path d="M6404 7626 c-10 -27 1 -71 19 -74 10 -2 17 3 17 12 0 8 9 20 20 26
27 14 25 36 -2 44 -35 9 -48 7 -54 -8z"/>
<path d="M6675 7579 c-25 -39 7 -126 37 -102 7 6 32 14 55 18 24 4 46 11 49
16 9 15 -16 39 -40 39 -12 0 -32 9 -44 20 -23 22 -47 26 -57 9z"/>
<path d="M3588 7543 c-10 -2 -21 -15 -24 -29 -4 -15 -13 -24 -25 -24 -12 0
-19 -7 -19 -20 0 -13 -7 -20 -20 -20 -17 0 -20 -7 -20 -44 0 -35 4 -45 20 -49
16 -4 20 -14 20 -51 l0 -46 40 0 c39 0 40 -1 40 -35 0 -19 -2 -35 -5 -35 -2 0
-27 5 -55 11 -44 9 -53 16 -62 41 -16 44 -42 33 -46 -19 -3 -34 0 -42 17 -48
12 -4 21 -15 21 -27 0 -17 -5 -20 -29 -15 -16 4 -42 18 -58 32 -60 55 -65 57
-114 57 -56 -1 -69 -6 -69 -29 0 -17 -38 -56 -65 -67 -9 -3 -19 -15 -22 -26
-3 -11 -9 -20 -14 -20 -5 0 -9 -6 -9 -14 0 -8 -7 -16 -15 -20 -8 -3 -15 -12
-15 -19 0 -8 -9 -22 -19 -31 -11 -10 -23 -31 -26 -46 -5 -21 -16 -32 -45 -44
-21 -8 -41 -24 -45 -36 -3 -11 -12 -20 -20 -20 -15 0 -25 -22 -25 -56 0 -14
-7 -27 -15 -30 -8 -4 -22 -21 -31 -40 -9 -18 -31 -42 -50 -53 -19 -11 -34 -24
-34 -30 0 -5 -11 -12 -25 -15 -14 -4 -25 -13 -25 -22 0 -8 -11 -26 -25 -40
-14 -14 -27 -35 -31 -48 -3 -13 -14 -26 -25 -29 -10 -3 -19 -12 -19 -21 0 -9
-8 -16 -20 -16 -14 0 -20 -7 -20 -21 0 -12 -8 -23 -20 -26 -10 -3 -22 -13 -25
-23 -3 -10 -15 -20 -27 -23 -19 -5 -20 -11 -16 -71 l6 -65 -30 -6 c-30 -7 -78
-51 -78 -71 0 -7 -16 -15 -35 -18 -21 -4 -35 -13 -35 -22 0 -8 -11 -20 -25
-26 -13 -6 -27 -19 -30 -30 -4 -10 -13 -18 -21 -18 -18 0 -34 -40 -34 -86 0
-21 -8 -42 -20 -54 -16 -16 -20 -33 -20 -95 0 -67 -2 -75 -19 -75 -18 0 -31
-34 -31 -84 0 -12 -12 -43 -26 -70 -31 -59 -35 -120 -10 -190 9 -27 14 -61 11
-76 -4 -18 -1 -31 10 -40 22 -18 19 -66 -7 -92 -21 -21 -24 -35 -30 -178 -3
-85 -9 -170 -13 -189 -5 -22 -4 -36 5 -41 8 -5 12 -71 12 -251 1 -174 5 -257
14 -289 9 -30 12 -68 7 -112 -5 -58 -3 -70 16 -97 12 -17 29 -31 36 -31 8 0
26 -5 40 -12 23 -10 25 -16 25 -73 0 -117 11 -184 31 -190 12 -4 19 -16 19
-30 0 -15 7 -26 20 -30 25 -8 29 -72 5 -81 -19 -8 -20 -70 -1 -81 7 -4 18 -18
25 -30 6 -13 18 -23 26 -23 8 0 15 -5 15 -11 0 -7 8 -19 19 -28 10 -9 20 -25
22 -36 2 -11 15 -22 29 -25 20 -5 26 -13 28 -42 2 -26 9 -37 23 -41 14 -4 19
-14 19 -40 0 -63 11 -97 31 -97 11 0 19 -6 19 -14 0 -8 9 -18 20 -21 12 -4 20
-15 20 -28 0 -38 12 -67 26 -67 7 0 17 -12 20 -26 8 -32 12 -36 109 -139 41
-43 75 -85 75 -92 0 -8 11 -18 25 -23 14 -5 25 -16 25 -24 0 -8 9 -18 20 -21
11 -3 20 -14 20 -24 0 -29 39 -71 66 -71 15 0 24 -6 24 -16 0 -9 8 -18 18 -21
10 -2 22 -14 27 -26 6 -12 20 -23 33 -25 14 -2 22 -10 22 -23 0 -10 5 -19 12
-19 6 0 21 -8 32 -18 12 -10 43 -24 71 -31 27 -6 51 -13 52 -15 2 -1 6 -24 10
-51 5 -39 15 -58 47 -91 23 -24 47 -50 54 -58 7 -9 26 -16 42 -16 23 0 31 -5
36 -25 5 -21 12 -25 46 -25 31 0 41 -4 45 -20 3 -11 12 -20 19 -20 8 0 19 -11
24 -25 5 -14 16 -25 23 -25 8 0 25 -8 38 -19 13 -10 48 -22 77 -26 42 -5 52
-11 52 -26 0 -13 7 -19 23 -19 12 0 30 -8 39 -19 8 -10 36 -21 62 -25 26 -4
50 -14 53 -22 3 -8 16 -14 28 -14 37 0 75 -18 75 -35 0 -10 10 -15 32 -15 20
0 42 -9 57 -24 23 -21 83 -34 173 -36 12 0 58 -54 58 -67 0 -7 11 -24 25 -38
20 -19 36 -25 70 -25 32 0 50 -6 64 -22 18 -18 34 -22 126 -26 72 -3 108 -9
116 -18 6 -8 30 -14 54 -14 81 0 133 -11 138 -30 5 -19 54 -31 132 -31 22 0
99 -1 170 -2 72 -1 153 2 182 6 48 8 51 11 57 42 7 38 35 54 52 31 14 -20 38
-20 147 1 70 13 92 14 105 5 10 -7 27 -16 38 -21 12 -5 24 -18 26 -29 10 -36
126 -37 203 -2 22 10 53 21 68 25 20 4 33 16 43 41 14 33 18 36 47 31 33 -4
57 11 57 36 0 11 21 16 83 22 93 8 122 26 133 82 11 56 81 86 104 43 11 -21
40 -17 40 6 0 11 16 14 64 14 63 0 64 0 70 31 3 17 6 51 6 74 0 25 6 48 15 55
17 14 35 5 35 -16 0 -8 4 -13 9 -9 5 3 16 -4 23 -14 38 -53 130 -40 143 20 5
23 13 30 42 35 35 7 55 30 36 43 -7 4 -4 21 8 48 l18 42 47 -20 c58 -26 140
-22 161 7 21 29 13 68 -15 72 -20 3 -23 8 -20 40 3 31 7 37 28 40 80 8 90 12
90 37 0 14 -4 25 -10 25 -5 0 -7 7 -4 15 4 10 13 13 25 10 32 -10 87 5 92 26
4 15 14 19 51 19 39 0 46 -3 46 -20 0 -28 46 -28 55 0 5 16 15 20 51 20 67 0
80 10 76 59 -4 35 -7 41 -27 41 -25 0 -65 42 -65 67 0 8 9 17 19 20 11 3 22
15 25 27 3 14 19 27 42 35 27 10 33 16 23 22 -10 6 -11 9 -1 9 32 0 -5 49 -39
50 -9 0 -21 11 -27 24 -8 18 -18 23 -44 22 -27 0 -34 3 -36 22 -3 16 2 22 15
22 25 0 73 46 73 70 0 13 7 20 20 20 14 0 20 7 20 23 1 51 51 75 83 39 18 -19
23 -62 8 -62 -4 0 -20 -11 -35 -25 -15 -14 -34 -25 -42 -25 -7 0 -14 -8 -14
-19 0 -16 10 -19 83 -23 95 -6 107 -3 107 24 0 11 8 22 20 25 11 3 20 14 20
24 0 13 7 19 24 19 15 0 26 7 29 20 3 11 12 20 20 20 8 0 17 9 20 20 6 25 68
28 91 4 21 -20 39 -8 32 22 -5 19 5 36 49 84 55 60 70 100 39 100 -9 0 -22 -7
-28 -16 -7 -8 -31 -18 -54 -21 -38 -5 -42 -3 -42 15 0 11 11 34 25 50 14 17
25 40 25 53 0 30 7 40 43 63 20 12 27 24 24 37 -3 10 -1 19 3 19 5 0 11 18 15
40 5 30 17 49 46 74 34 29 37 35 24 46 -20 16 -20 86 0 97 7 5 17 27 21 51 6
38 5 42 -15 42 -16 0 -21 -6 -21 -29 0 -23 -8 -32 -45 -52 l-45 -24 0 -57 c0
-47 -3 -58 -19 -63 -28 -9 -32 -30 -10 -54 12 -13 15 -21 7 -21 -6 0 -3 -7 8
-16 15 -12 16 -16 5 -21 -8 -3 -31 -21 -51 -39 -21 -19 -42 -34 -48 -34 -15 0
-32 -33 -32 -60 0 -13 -9 -24 -25 -30 -15 -6 -25 -17 -25 -30 0 -12 -7 -20
-16 -20 -24 0 -74 52 -74 77 0 23 -7 27 -45 24 -58 -4 -83 -13 -88 -30 -2 -11
-15 -21 -28 -23 -16 -2 -25 -12 -31 -34 -11 -43 -34 -51 -42 -14 -4 21 -16 35
-46 50 -35 18 -40 25 -40 55 l0 35 -48 0 c-53 0 -82 -20 -82 -56 0 -11 -5 -25
-11 -31 -14 -14 -7 -98 9 -99 6 -1 19 -2 27 -3 8 0 15 -7 15 -15 0 -15 42 -26
96 -26 29 0 34 -4 34 -22 -1 -32 -21 -55 -56 -64 -37 -9 -43 -20 -37 -59 7
-41 -6 -49 -46 -29 -31 15 -34 34 -5 34 31 0 25 30 -15 71 -27 28 -39 49 -37
63 2 11 -2 27 -8 35 -9 12 -8 13 3 6 10 -5 12 -4 7 3 -12 20 -51 13 -74 -13
-12 -14 -26 -25 -31 -25 -13 0 -22 -61 -15 -97 4 -19 14 -33 25 -36 11 -3 19
-14 19 -26 0 -16 6 -21 25 -21 22 0 25 -4 25 -39 0 -30 -6 -43 -30 -63 -17
-14 -48 -28 -70 -32 -30 -5 -39 -11 -42 -28 -2 -13 -11 -24 -20 -26 -27 -5
-24 44 2 51 11 3 20 9 19 14 -4 23 3 33 25 33 18 0 25 7 29 30 9 41 -1 60 -29
60 -17 0 -24 6 -24 20 0 17 -7 20 -45 20 -31 0 -47 -5 -51 -15 -4 -9 -26 -17
-55 -21 -43 -6 -51 -11 -64 -38 -8 -17 -16 -56 -17 -86 l-3 -55 -63 -3 c-48
-2 -64 -7 -69 -20 -9 -24 -23 -32 -61 -32 -22 0 -39 -8 -54 -25 -12 -14 -32
-25 -45 -25 -49 0 -14 76 44 94 27 9 44 83 22 97 -21 14 -88 0 -110 -22 -10
-10 -28 -19 -39 -19 -10 0 -30 -11 -42 -23 -14 -14 -42 -27 -68 -31 -25 -4
-51 -13 -60 -20 -8 -8 -40 -19 -72 -25 -31 -7 -59 -18 -61 -26 -3 -7 -25 -16
-48 -20 -23 -4 -56 -16 -73 -26 -21 -13 -50 -19 -92 -19 -45 0 -68 -5 -85 -19
-13 -10 -46 -24 -74 -30 -27 -6 -59 -14 -70 -17 -67 -20 -137 -26 -176 -16
-36 9 -48 8 -80 -9 -21 -10 -53 -19 -72 -19 -18 0 -37 -3 -41 -7 -18 -18 -92
-30 -163 -27 -126 7 -166 12 -198 25 -16 7 -86 18 -154 25 -88 8 -128 16 -136
27 -6 8 -37 18 -75 22 -36 4 -76 15 -90 25 -16 11 -54 19 -104 24 -84 6 -186
46 -186 72 0 8 -1 14 -2 14 -2 1 -21 3 -42 6 -43 7 -113 46 -134 76 -7 10 -20
18 -28 18 -9 0 -27 9 -41 20 -14 11 -37 20 -50 20 -16 0 -27 7 -30 19 -3 13
-17 22 -43 26 -22 4 -44 13 -50 20 -6 8 -26 19 -43 25 -23 7 -37 21 -49 50
-11 28 -23 40 -36 40 -31 0 -52 11 -52 26 0 8 -7 14 -15 14 -9 0 -20 11 -25
25 -5 13 -18 33 -30 45 -11 11 -20 29 -20 40 0 13 -10 24 -25 30 -15 6 -25 17
-25 30 0 11 -7 20 -15 20 -8 0 -17 11 -21 25 -4 16 -13 25 -25 25 -10 0 -19 7
-19 15 0 9 -11 28 -25 43 -14 15 -28 37 -31 50 -4 12 -14 22 -23 22 -28 0 -61
30 -61 55 0 19 -10 30 -40 45 -23 12 -46 33 -53 48 -6 15 -20 33 -29 40 -10 7
-18 19 -18 26 0 8 -9 16 -20 19 -15 4 -20 14 -20 41 0 25 6 38 20 46 27 15 24
39 -9 78 -27 31 -29 38 -24 93 l6 59 -41 0 c-37 0 -42 3 -48 28 -12 56 -16 62
-35 62 -11 0 -28 14 -40 33 -17 26 -19 42 -14 87 8 68 8 53 0 185 -4 61 -8
196 -9 300 -1 105 -5 195 -9 201 -4 7 -19 15 -34 19 -35 8 -43 21 -43 65 0 40
7 54 33 63 14 5 17 20 17 96 0 81 2 90 20 96 19 6 20 15 20 141 0 108 3 134
14 134 7 0 36 15 64 33 35 22 53 41 57 61 4 16 16 45 26 63 25 44 25 109 1
122 -14 7 -18 18 -14 41 2 17 10 34 18 37 7 2 16 26 20 51 4 28 14 52 25 60
12 8 19 25 19 47 0 24 6 39 20 47 26 17 26 50 -1 66 -17 11 -20 20 -16 49 4
20 15 44 27 55 11 10 20 23 20 27 0 5 9 11 20 14 15 4 20 14 20 40 0 24 6 40
19 49 10 7 21 23 25 36 4 13 15 22 27 22 12 0 19 7 19 20 0 19 20 47 67 97 12
13 25 39 29 58 3 20 15 40 25 46 11 5 19 19 19 29 0 13 7 20 20 20 13 0 22 9
26 25 3 14 13 25 21 25 8 0 17 9 20 20 3 11 13 20 23 20 12 0 20 10 24 31 3
18 16 42 29 55 48 51 57 65 57 93 0 32 12 45 53 55 27 6 44 18 91 64 13 12 27
22 31 22 4 0 18 9 32 20 21 16 41 20 108 20 100 0 145 8 145 26 0 7 20 23 44
34 50 22 54 30 57 115 4 114 0 145 -18 152 -10 3 -26 13 -36 21 -9 9 -41 19
-71 23 -30 4 -69 14 -87 22 -19 9 -61 19 -94 23 -33 3 -71 12 -85 19 -42 21
-198 35 -371 34 -90 -1 -172 -3 -181 -6z m3722 -4912 c0 -63 -7 -71 -56 -71
-17 0 -24 6 -24 20 0 13 7 20 20 20 14 0 21 9 26 38 8 43 12 52 25 52 5 0 9
-27 9 -59z m-356 -67 c36 -5 46 -11 46 -25 0 -12 -7 -19 -18 -19 -11 0 -27 -9
-37 -20 -22 -24 -70 -27 -79 -4 -10 26 -7 62 7 67 18 8 29 8 81 1z m496 -25
c0 -10 -13 -32 -30 -47 -16 -16 -30 -34 -30 -40 0 -6 -16 -14 -35 -18 -30 -5
-35 -10 -35 -35 0 -22 5 -29 20 -29 11 0 20 -7 20 -15 0 -19 -36 -20 -43 -1
-3 7 -23 18 -44 23 -40 9 -49 26 -39 69 6 22 11 24 66 24 53 0 60 2 60 19 0
11 9 23 20 26 11 3 20 12 20 19 0 18 21 35 36 29 8 -3 14 -14 14 -24z"/>
<path d="M6360 7516 c0 -9 7 -16 16 -16 9 0 14 5 12 12 -6 18 -28 21 -28 4z"/>
<path d="M6490 7425 c-8 -20 -16 -25 -43 -25 -19 0 -36 -3 -40 -6 -9 -9 4 -34
18 -34 7 0 15 -14 19 -30 3 -17 12 -33 20 -36 20 -8 66 24 66 46 0 23 19 30
61 21 34 -7 34 -7 39 -71 4 -58 7 -65 28 -68 12 -2 22 -7 22 -11 0 -13 51 -32
70 -26 12 4 16 16 16 48 l-1 42 45 0 c49 0 61 16 40 55 -9 17 -18 20 -36 16
-15 -4 -33 -1 -46 8 -32 23 -48 10 -48 -40 0 -37 -3 -44 -20 -44 -16 0 -20 7
-20 34 0 60 -11 96 -30 96 -9 0 -29 11 -44 25 -19 18 -38 25 -67 25 -33 0 -41
-4 -49 -25z"/>
<path d="M6857 7444 c-8 -9 11 -44 24 -44 6 0 18 -9 27 -20 13 -15 21 -17 32
-10 13 9 12 13 -5 28 -12 9 -24 25 -28 35 -6 17 -37 23 -50 11z"/>
<path d="M6730 7426 c0 -22 17 -28 24 -10 9 22 8 24 -9 24 -8 0 -15 -6 -15
-14z"/>
<path d="M6817 7183 c-13 -12 -7 -44 9 -50 20 -7 33 12 27 38 -5 19 -24 25
-36 12z"/>
<path d="M5805 7160 c-21 -4 -41 -13 -43 -19 -2 -7 -33 -11 -83 -11 -66 0 -82
-3 -99 -20 -13 -13 -40 -22 -77 -26 -32 -4 -69 -15 -82 -26 -13 -10 -39 -18
-57 -18 -22 0 -38 -7 -47 -20 -9 -12 -31 -23 -53 -27 -22 -3 -46 -12 -54 -19
-9 -7 -34 -16 -57 -20 -23 -3 -51 -15 -62 -25 -11 -11 -25 -19 -30 -19 -6 0
-37 -13 -68 -30 -32 -16 -73 -32 -92 -34 -19 -1 -40 -10 -46 -20 -7 -9 -20
-16 -30 -16 -9 0 -19 -9 -22 -20 -4 -14 -17 -21 -52 -25 -25 -4 -58 -15 -73
-26 -15 -10 -34 -19 -42 -19 -8 0 -18 -9 -21 -20 -3 -11 -15 -20 -25 -20 -16
0 -31 -11 -106 -80 -23 -21 -94 -28 -94 -10 0 17 -62 49 -107 56 -24 3 -43 10
-43 15 0 5 -13 9 -29 9 -22 0 -31 -6 -41 -30 -14 -35 -11 -41 33 -56 27 -9 32
-16 35 -48 3 -31 0 -38 -17 -43 -12 -3 -21 -12 -21 -19 0 -8 -11 -19 -25 -24
-14 -5 -25 -16 -25 -24 0 -7 -6 -16 -14 -19 -9 -4 -16 -32 -20 -85 -5 -60 -12
-84 -27 -98 -15 -13 -19 -30 -19 -80 0 -34 3 -64 8 -66 8 -3 42 -160 42 -196
0 -15 7 -26 20 -29 11 -3 20 -11 20 -19 0 -7 9 -18 20 -24 11 -6 20 -19 20
-29 0 -14 10 -20 40 -25 23 -3 50 -12 60 -18 15 -9 22 -10 31 -1 14 14 28 83
29 143 0 25 6 54 14 65 7 11 15 51 18 89 3 48 9 72 20 80 9 7 19 28 23 48 4
20 13 39 21 42 8 3 19 17 24 31 5 14 16 25 24 25 7 0 17 11 20 25 4 14 13 25
21 25 9 0 20 11 25 25 5 14 16 25 24 25 7 0 16 9 19 20 3 12 14 20 27 20 13 0
24 8 27 20 3 11 13 20 22 20 9 0 28 11 43 25 15 14 34 25 43 25 10 0 19 9 22
19 4 17 48 41 75 41 20 0 58 -105 58 -161 0 -84 13 -112 66 -137 24 -12 51
-22 59 -22 24 0 19 -51 -5 -57 -11 -3 -20 -13 -20 -23 0 -11 -10 -20 -25 -24
-14 -4 -25 -12 -25 -20 0 -7 -11 -18 -25 -24 -14 -6 -25 -18 -25 -26 0 -9 -15
-17 -40 -21 -26 -4 -41 -13 -45 -26 -5 -14 -16 -19 -45 -19 -34 0 -39 3 -45
29 -6 30 -42 61 -69 61 -25 0 -65 -48 -72 -85 -3 -20 -4 -65 -2 -101 4 -58 7
-69 31 -86 15 -11 27 -26 27 -34 0 -8 9 -14 20 -14 13 0 20 -7 20 -19 0 -11 9
-22 19 -26 11 -3 23 -15 26 -26 4 -12 15 -19 33 -19 15 0 52 -7 82 -16 30 -8
80 -18 110 -22 50 -6 55 -9 55 -32 0 -16 -8 -28 -22 -35 -13 -5 -23 -14 -23
-20 0 -5 -7 -18 -14 -28 -12 -16 -15 -16 -29 -2 -23 22 -84 20 -99 -5 -7 -11
-19 -20 -27 -20 -8 0 -29 -11 -47 -25 -41 -31 -106 -35 -126 -7 -29 41 -78 48
-78 11 0 -10 -9 -28 -20 -39 -11 -11 -20 -30 -20 -43 0 -13 -11 -33 -24 -45
-28 -24 -41 -87 -28 -142 l8 -35 169 -6 c94 -3 171 -6 173 -7 8 -6 -1 -22 -13
-22 -10 0 -15 -10 -15 -29 0 -23 -7 -32 -34 -45 -19 -9 -49 -19 -68 -22 -92
-15 -88 -8 -89 -199 0 -106 -4 -138 -15 -150 -12 -11 -40 -15 -117 -15 -121
-1 -164 -9 -200 -40 -31 -27 -34 -45 -12 -66 23 -23 72 -34 160 -34 100 -1
165 -13 181 -34 6 -9 21 -16 32 -16 11 0 23 -8 27 -19 3 -12 19 -21 42 -26 20
-3 46 -13 58 -21 13 -8 49 -15 88 -15 83 -1 152 29 175 78 9 18 19 33 22 33 4
0 21 12 38 28 21 19 32 40 37 70 9 57 28 49 37 -14 10 -72 -2 -252 -18 -265
-7 -6 -18 -26 -24 -45 -6 -19 -17 -34 -25 -34 -7 0 -19 -9 -26 -20 -12 -17
-30 -20 -141 -26 -98 -5 -128 -10 -128 -20 0 -34 -39 -54 -127 -64 -49 -5
-108 -10 -132 -10 -26 0 -52 -6 -61 -15 -10 -9 -40 -18 -69 -22 -50 -6 -51 -7
-78 -61 -24 -49 -25 -58 -14 -86 7 -17 15 -42 18 -55 10 -41 54 -51 162 -36
65 9 97 18 103 29 7 12 26 16 79 16 62 0 71 -2 76 -20 3 -11 12 -20 20 -20 8
0 28 -13 44 -29 38 -38 39 -87 4 -125 -14 -15 -25 -37 -25 -50 0 -25 -29 -36
-95 -36 -24 0 -34 -5 -38 -20 -3 -11 -12 -20 -20 -20 -9 0 -18 -8 -21 -17 -9
-34 0 -281 11 -294 6 -8 14 -30 18 -51 4 -20 19 -48 35 -63 26 -25 32 -26 111
-23 93 4 109 7 124 25 7 9 67 16 181 23 93 6 186 15 205 20 18 6 120 13 224
16 105 3 222 10 260 15 121 17 216 28 340 40 169 16 215 23 253 38 25 10 30
16 20 22 -10 7 -8 9 7 9 201 8 292 18 325 38 29 17 58 23 150 27 132 7 163 12
155 24 -3 5 -22 12 -43 16 -25 4 -41 13 -47 28 -8 17 -19 22 -47 22 -21 1 -43
6 -49 12 -15 15 7 20 131 28 98 6 123 16 102 38 -10 9 -71 12 -235 12 -290 0
-388 -5 -412 -21 -13 -9 -25 -10 -35 -4 -8 5 -30 7 -48 4 -20 -4 -38 -1 -49 7
-13 12 -101 14 -485 12 l-468 -3 0 25 c0 16 6 25 15 25 8 0 15 9 15 20 0 12
10 25 25 32 14 6 25 17 25 25 0 7 9 13 21 13 12 0 23 8 26 20 3 11 11 20 18
20 6 0 26 14 43 30 18 17 38 30 46 30 8 0 18 9 21 20 4 13 15 20 31 20 16 0
24 6 24 18 0 12 15 25 41 36 22 10 45 29 51 42 6 13 16 24 21 24 6 0 28 18 49
39 21 22 53 51 70 65 28 22 31 27 21 48 -6 13 -17 38 -23 56 -15 39 -59 92
-76 92 -7 0 -14 5 -16 11 -4 13 -126 57 -198 71 -31 6 -62 19 -72 30 -13 16
-28 19 -70 18 -72 -3 -78 -2 -78 14 0 7 -6 19 -14 25 -20 17 -29 76 -14 100
15 25 -5 70 -31 66 -26 -4 -87 74 -77 100 4 13 36 15 204 15 188 0 200 -1 213
-20 19 -27 188 -46 281 -30 35 5 66 10 70 10 4 0 10 9 13 20 4 14 15 20 34 20
16 0 39 9 52 19 16 12 50 22 94 26 39 4 82 14 97 21 53 27 88 9 88 -45 0 -16
-6 -21 -25 -21 -14 0 -28 -6 -31 -14 -3 -8 -32 -24 -65 -35 -32 -12 -59 -26
-59 -31 0 -5 -9 -12 -21 -15 -11 -4 -24 -18 -29 -31 -5 -13 -17 -24 -27 -24
-17 -1 -16 -2 1 -15 29 -22 89 -19 111 5 12 13 31 20 54 20 20 0 47 7 61 15
14 8 32 17 40 21 26 12 80 72 80 89 0 8 9 15 20 15 10 0 24 9 30 19 5 11 19
23 30 26 11 3 20 15 20 26 0 10 5 19 10 19 6 0 10 5 10 11 0 6 14 31 30 56 34
50 36 59 16 66 -8 3 -17 19 -21 35 -3 16 -19 41 -36 56 -16 14 -29 30 -29 35
0 4 -19 12 -42 18 -24 5 -42 14 -41 20 3 13 -50 25 -72 17 -8 -4 -15 -12 -15
-19 0 -7 -11 -16 -25 -19 -14 -4 -25 -12 -25 -20 0 -14 -41 -26 -94 -26 -17 0
-42 -9 -56 -20 -14 -11 -34 -20 -45 -20 -11 0 -43 -11 -72 -24 -29 -14 -74
-28 -100 -32 -26 -3 -60 -13 -75 -20 -25 -13 -124 -39 -188 -49 -14 -2 -82 -7
-152 -11 -115 -6 -128 -5 -128 9 0 12 12 19 39 23 25 4 41 12 44 24 3 12 19
19 55 23 80 9 92 19 92 78 0 42 -3 51 -22 58 -13 5 -32 18 -42 30 -11 12 -31
21 -48 21 -19 0 -28 5 -28 16 0 9 -9 18 -20 21 -26 7 -28 53 -2 53 9 0 23 9
29 19 7 11 26 22 44 26 18 4 33 15 36 26 3 10 14 21 24 24 11 4 24 15 29 26 6
10 17 19 25 19 8 0 17 11 21 25 4 16 13 25 25 25 13 0 19 7 19 24 0 35 10 56
26 56 10 0 14 13 14 45 0 34 -4 45 -15 45 -9 0 -20 11 -25 25 -5 14 -15 25
-21 25 -7 0 -27 11 -45 25 -18 14 -46 25 -63 25 -21 0 -35 7 -47 25 -9 13 -24
27 -35 30 -14 5 -19 16 -19 40 0 27 5 34 25 39 14 4 25 12 25 20 0 7 18 17 43
22 40 8 42 11 45 47 3 30 10 42 39 61 35 24 36 24 52 6 33 -39 287 -36 313 4
4 6 8 21 8 34 0 14 9 27 25 34 14 6 25 18 25 26 0 7 9 16 20 19 11 3 20 14 20
24 0 10 9 23 20 29 11 6 20 17 20 25 0 8 5 15 10 15 6 0 10 5 10 11 0 7 7 17
16 23 8 7 18 31 21 54 3 26 13 46 23 52 10 5 20 27 24 50 4 26 11 40 21 40 8
0 15 6 15 13 2 50 22 162 32 175 9 11 13 60 13 172 l-1 156 -39 36 c-22 20
-60 55 -85 78 -25 23 -57 46 -71 52 -15 5 -29 18 -32 29 -4 13 -14 19 -34 19
-15 0 -41 9 -58 20 -25 16 -46 19 -130 18 -55 -1 -118 -5 -140 -8z m285 -180
c0 -5 7 -10 15 -10 8 0 15 -4 15 -10 0 -5 9 -10 20 -10 11 0 20 -6 20 -12 0
-26 -12 -58 -20 -53 -4 3 -11 -15 -14 -40 -5 -29 -12 -45 -21 -45 -9 0 -17
-15 -20 -37 -12 -73 -15 -83 -30 -83 -9 0 -15 -9 -15 -23 0 -16 -9 -28 -25
-35 -20 -9 -25 -19 -25 -46 0 -25 -5 -35 -20 -39 -12 -3 -20 -14 -20 -26 0
-14 -6 -21 -20 -21 -12 0 -24 -10 -29 -24 -5 -13 -16 -26 -25 -29 -8 -3 -18
-21 -21 -40 -5 -27 -14 -37 -47 -51 -21 -10 -44 -28 -50 -41 -10 -23 -46 -45
-73 -45 -8 0 -15 -4 -15 -9 0 -10 -54 -31 -81 -31 -14 0 -19 7 -19 29 0 40 9
61 26 61 8 0 19 11 24 25 6 15 17 25 30 25 13 0 20 7 20 20 0 11 7 20 15 20 9
0 21 11 27 25 6 14 19 25 28 25 12 0 19 11 24 39 3 21 13 41 21 45 21 8 22
134 1 142 -8 3 -17 23 -21 45 -5 31 -11 39 -28 39 -42 0 -67 12 -67 32 0 17
-6 19 -47 16 -41 -3 -48 -6 -51 -25 -3 -19 1 -23 21 -23 50 0 64 -64 18 -86
-13 -7 -30 -26 -38 -42 -8 -17 -29 -37 -46 -46 -18 -8 -38 -24 -45 -36 -11
-17 -16 -19 -28 -10 -10 9 -14 38 -14 116 0 92 -2 104 -19 114 -23 12 -36 62
-23 87 6 9 36 24 68 33 50 14 64 24 81 58 0 2 72 6 159 8 100 4 169 10 188 19
36 16 196 20 196 5z m-883 -228 c17 -10 29 -72 15 -72 -6 0 -12 -10 -14 -22
-2 -13 -11 -24 -21 -26 -10 -2 -29 -14 -42 -28 -26 -26 -49 -30 -89 -14 -34
12 -37 64 -5 80 11 7 28 18 37 26 75 65 93 73 119 56z m12 -219 c18 -18 18
-21 1 -112 -16 -84 -29 -110 -52 -111 -5 0 -8 -9 -8 -20 0 -13 -7 -20 -20 -20
-19 0 -20 7 -20 109 0 103 1 111 26 140 29 35 47 38 73 14z m814 -5 c7 -21 -4
-38 -24 -38 -14 0 -19 7 -19 25 0 18 5 25 19 25 11 0 21 -6 24 -12z m-49 -57
c-5 -3 -9 -12 -10 -18 -2 -28 -4 -33 -14 -33 -15 0 -12 58 3 63 15 6 32 -3 21
-12z m-604 -1641 c0 -27 -93 -42 -103 -16 -3 8 -3 17 0 20 10 10 103 7 103 -4z
m-137 -61 c-17 -17 -37 -1 -22 17 8 10 15 12 23 4 7 -7 7 -13 -1 -21z m-118
-39 c0 -8 -11 -17 -24 -18 -13 -2 -26 -12 -28 -23 -3 -10 -14 -19 -24 -19 -10
0 -21 -4 -24 -10 -3 -5 -26 -10 -50 -10 -24 0 -46 -4 -49 -9 -9 -14 -58 -20
-95 -13 l-34 7 26 18 c15 10 27 24 27 32 0 17 20 22 109 29 45 3 67 9 73 21
13 22 93 17 93 -5z m295 -645 c0 -8 -7 -15 -15 -15 -8 0 -15 7 -15 15 0 8 7
15 15 15 8 0 15 -7 15 -15z m-352 -127 c5 -25 -52 -78 -77 -71 -24 6 -54 50
-47 68 10 28 119 31 124 3z m-318 -404 c0 -28 -3 -35 -17 -32 -12 2 -18 12
-18 28 0 15 5 24 13 23 6 -2 12 2 12 7 0 6 2 10 5 10 3 0 5 -16 5 -36z"/>
<path d="M5551 6754 c0 -11 3 -14 6 -6 3 7 2 16 -1 19 -3 4 -6 -2 -5 -13z"/>
<path d="M7135 7142 c-11 -2 -26 -9 -32 -14 -16 -13 -17 -45 -1 -50 6 -2 17
-20 23 -39 13 -38 45 -53 45 -20 0 11 5 23 10 26 13 8 2 75 -14 90 -6 6 -20 9
-31 7z"/>
<path d="M7646 7123 c-11 -12 -6 -33 8 -33 19 0 28 27 11 33 -7 3 -16 3 -19 0z"/>
<path d="M7684 6797 c-3 -8 -4 -28 -2 -44 3 -25 7 -28 38 -28 30 0 35 4 38 25
3 33 -7 47 -41 55 -19 5 -28 3 -33 -8z"/>
<path d="M7826 6675 c-10 -28 -7 -45 9 -45 22 0 30 29 13 47 -14 13 -16 13
-22 -2z"/>
<path d="M7640 6420 c0 -15 5 -20 18 -18 9 2 17 10 17 18 0 8 -8 16 -17 18
-13 2 -18 -3 -18 -18z"/>
<path d="M7664 6279 c-19 -31 -23 -44 -14 -53 8 -8 14 -7 23 5 7 9 22 19 35
23 36 12 25 66 -14 66 -2 0 -15 -19 -30 -41z"/>
<path d="M7770 6236 c0 -37 10 -56 31 -56 20 0 26 31 13 64 -10 26 -44 20 -44
-8z"/>
<path d="M8063 6253 c-18 -6 -16 -33 1 -33 15 0 30 27 18 33 -4 3 -13 2 -19 0z"/>
<path d="M8145 6110 c-8 -14 3 -30 21 -30 8 0 14 9 14 20 0 21 -24 28 -35 10z"/>
<path d="M8015 6010 c-3 -5 -1 -10 4 -10 6 0 11 5 11 10 0 6 -2 10 -4 10 -3 0
-8 -4 -11 -10z"/>
<path d="M8279 5733 c-17 -44 -8 -58 36 -58 40 0 40 0 43 43 l3 42 -36 0 c-29
0 -37 -5 -46 -27z"/>
<path d="M8147 5573 c-4 -3 -7 -15 -7 -25 0 -22 23 -24 41 -2 10 13 10 17 -2
25 -17 11 -24 11 -32 2z"/>
<path d="M8240 5430 c-12 -7 -12 -12 -2 -22 9 -9 15 -9 24 0 8 8 9 15 2 22 -5
5 -15 6 -24 0z"/>
<path d="M8370 5331 c0 -15 6 -21 21 -21 25 0 22 33 -4 38 -12 2 -17 -3 -17
-17z"/>
<path d="M8565 5340 c-16 -26 34 -96 61 -86 11 4 14 18 12 48 -3 40 -5 43 -35
46 -17 2 -34 -2 -38 -8z"/>
<path d="M8102 5304 c-19 -20 -14 -42 10 -50 13 -4 27 -13 33 -20 5 -6 25 -15
43 -19 29 -6 34 -4 39 14 3 12 13 21 23 21 20 0 32 23 24 45 -8 19 -24 19 -52
-1 -20 -14 -26 -13 -65 4 -35 16 -45 17 -55 6z"/>
<path d="M8414 5243 c-3 -10 -11 -28 -17 -41 -9 -18 -8 -25 3 -32 21 -14 50
-12 51 3 0 6 2 23 3 37 2 14 1 31 -1 38 -7 18 -33 15 -39 -5z"/>
<path d="M8588 5203 c-10 -2 -18 -11 -18 -18 0 -7 -3 -20 -6 -29 -4 -11 -1
-16 10 -16 10 0 16 8 16 21 0 15 5 19 15 15 10 -4 15 1 15 14 0 20 -2 21 -32
13z"/>
<path d="M8230 5120 c0 -33 3 -40 19 -40 25 0 71 42 71 64 0 12 -10 16 -45 16
l-45 0 0 -40z"/>
<path d="M8226 4922 c-4 -11 -22 -22 -44 -28 -36 -9 -37 -10 -42 -62 -7 -63 6
-88 39 -77 18 5 21 13 19 43 l-3 37 50 9 c76 13 75 12 75 56 l0 40 -44 0 c-34
0 -46 -4 -50 -18z"/>
<path d="M8417 4923 c-21 -21 12 -37 48 -23 14 5 25 14 25 20 0 11 -63 14 -73
3z"/>
<path d="M8700 4880 c-12 -7 -12 -12 -3 -21 15 -15 26 -7 21 15 -2 11 -7 13
-18 6z"/>
<path d="M3931 4831 c-6 -10 -7 -22 -3 -26 4 -3 3 -6 -3 -5 -24 5 -36 -2 -45
-25 -5 -14 -16 -25 -25 -25 -10 0 -15 -10 -15 -34 0 -22 -7 -40 -18 -48 -12
-8 -21 -32 -25 -62 -4 -28 -16 -59 -27 -71 -11 -12 -20 -31 -20 -43 0 -12 -8
-30 -18 -40 -30 -30 -42 -123 -33 -250 7 -99 11 -115 30 -128 11 -8 21 -23 21
-33 0 -22 13 -28 79 -37 49 -6 50 -6 56 22 4 16 14 47 22 69 10 24 19 90 22
162 6 104 9 125 25 136 17 12 19 33 24 186 5 169 4 172 -17 178 -24 6 -29 43
-6 43 9 0 15 9 15 25 0 30 -25 34 -39 6z"/>
<path d="M8415 4790 c-8 -14 3 -30 21 -30 8 0 14 9 14 20 0 21 -24 28 -35 10z"/>
<path d="M7967 4703 c-14 -13 -6 -33 13 -33 22 0 23 1 14 24 -7 17 -16 20 -27
9z"/>
<path d="M8240 4545 c0 -8 7 -15 15 -15 8 0 15 7 15 15 0 8 -7 15 -15 15 -8 0
-15 -7 -15 -15z"/>
<path d="M8425 4510 c-7 -12 2 -30 16 -30 12 0 12 27 0 35 -5 3 -12 1 -16 -5z"/>
<path d="M8121 4376 c-18 -21 14 -68 43 -64 12 2 20 9 19 16 -2 6 3 12 10 12
23 0 38 22 26 37 -15 17 -83 17 -98 -1z"/>
<path d="M8352 4338 c-57 -74 -38 -178 33 -178 31 0 33 23 5 47 -19 17 -19 17
0 35 27 25 27 138 1 138 -4 0 -21 -19 -39 -42z"/>
<path d="M8158 4243 c-21 -5 -26 -72 -5 -74 51 -5 77 13 77 52 0 25 -4 29 -27
28 -16 -1 -36 -3 -45 -6z"/>
<path d="M8560 4225 c0 -8 5 -15 10 -15 6 0 10 7 10 15 0 8 -4 15 -10 15 -5 0
-10 -7 -10 -15z"/>
<path d="M8505 4060 c-8 -57 -22 -76 -65 -85 -27 -6 -30 -10 -30 -45 0 -31 4
-39 23 -44 36 -10 77 -7 77 5 0 7 8 19 18 28 24 21 32 64 25 134 -5 46 -9 57
-23 57 -14 0 -20 -11 -25 -50z"/>
<path d="M8322 4030 c2 -38 -6 -52 -35 -62 -4 -2 -10 -21 -14 -43 -3 -22 -12
-44 -19 -50 -20 -15 -2 -35 31 -38 22 -1 30 3 33 18 2 11 12 27 22 35 14 12
19 32 22 95 3 77 2 80 -20 83 -21 3 -23 0 -20 -38z"/>
<path d="M8000 3951 c0 -19 23 -35 34 -24 14 15 5 43 -14 43 -13 0 -20 -7 -20
-19z"/>
<path d="M7759 3853 c-12 -32 -2 -56 26 -61 27 -6 37 12 30 52 -9 45 -40 50
-56 9z"/>
<path d="M8050 3861 c0 -15 6 -21 21 -21 14 0 19 5 17 17 -5 26 -38 29 -38 4z"/>
<path d="M7909 3791 c-29 -31 -49 -62 -53 -84 -4 -19 -13 -40 -21 -47 -8 -7
-15 -21 -15 -31 0 -10 -4 -20 -9 -23 -5 -3 -7 -24 -4 -45 5 -33 2 -40 -16 -46
-24 -7 -29 -35 -5 -35 9 0 27 9 41 20 14 11 38 20 54 20 21 0 28 5 31 23 2 14
11 23 26 25 12 2 22 10 22 18 0 8 15 16 40 20 26 4 41 13 45 25 8 23 31 25 39
3 13 -33 5 -72 -19 -100 -14 -16 -25 -37 -25 -47 0 -15 -8 -17 -68 -15 -62 3
-70 1 -95 -24 -34 -34 -34 -53 1 -67 40 -15 68 -43 76 -75 6 -25 10 -28 38
-22 17 3 37 6 44 6 8 0 14 5 14 10 0 6 9 19 20 30 11 11 20 27 20 35 0 8 9 15
20 15 15 0 22 11 31 45 6 25 15 45 20 45 5 0 14 11 19 25 6 15 17 25 28 25 19
0 21 7 34 118 1 6 7 12 13 12 15 0 25 45 25 108 0 44 0 44 -30 38 -17 -3 -40
-15 -52 -26 -12 -11 -32 -20 -44 -20 -14 0 -25 -8 -29 -20 -13 -41 -75 -15
-75 31 0 22 -6 32 -19 36 -11 3 -21 13 -24 24 -9 35 -49 23 -98 -30z"/>
<path d="M7595 3550 c-8 -14 3 -30 21 -30 8 0 14 9 14 20 0 21 -24 28 -35 10z"/>
<path d="M7490 3415 c0 -9 -9 -19 -20 -22 -13 -4 -20 -14 -20 -30 0 -13 -9
-34 -20 -45 -24 -26 -15 -38 23 -31 17 3 32 15 37 28 5 12 20 35 35 51 32 34
29 58 -8 62 -20 2 -27 -1 -27 -13z"/>
<path d="M7686 3371 c-12 -19 7 -41 41 -47 40 -8 55 3 47 34 -5 18 -13 22 -45
22 -21 0 -40 -4 -43 -9z"/>
<path d="M7370 3260 c0 -5 -11 -12 -25 -16 -14 -3 -25 -10 -25 -15 0 -4 -9
-16 -19 -26 -11 -10 -23 -34 -28 -53 -8 -30 -14 -36 -43 -40 -26 -4 -37 -13
-53 -43 -10 -21 -31 -44 -46 -52 -15 -7 -33 -21 -40 -29 -8 -9 -20 -16 -29
-16 -21 0 -62 -47 -62 -71 0 -15 7 -19 39 -19 22 0 44 6 51 15 7 8 28 17 47
21 23 4 37 14 43 29 5 13 20 24 38 28 43 9 92 59 92 95 0 54 15 79 54 86 37 7
47 22 48 76 1 18 7 31 17 33 9 3 -1 5 -21 6 -21 0 -38 -3 -38 -9z"/>
<path d="M6960 2809 c0 -24 23 -21 28 4 2 10 -3 17 -12 17 -10 0 -16 -9 -16
-21z"/>
<path d="M7137 1963 c-16 -4 -17 -21 -1 -70 7 -26 32 -13 37 20 6 36 -9 56
-36 50z"/>
</g>
</svg>
